Coordinates
version=1
nRows=6
nColumns=38
inDegrees=yes

Units are S.I. units (second, meters, Newtons, ...)
Angles are in degrees.

endheader
time	pelvis_tilt	pelvis_list	pelvis_rotation	pelvis_tx	pelvis_ty	pelvis_tz	hip_flexion_r	hip_adduction_r	hip_rotation_r	knee_angle_r	ankle_angle_r	subtalar_angle_r	mtp_angle_r	hip_flexion_l	hip_adduction_l	hip_rotation_l	knee_angle_l	ankle_angle_l	subtalar_angle_l	mtp_angle_l	lumbar_extension	lumbar_bending	lumbar_rotation	arm_flex_r	arm_add_r	arm_rot_r	elbow_flex_r	pro_sup_r	wrist_flex_r	wrist_dev_r	arm_flex_l	arm_add_l	arm_rot_l	elbow_flex_l	pro_sup_l	wrist_flex_l	wrist_dev_l
      0.00000000	     -3.33672746	     -6.54665973	     91.67820042	     -0.20037011	      1.06136595	     -0.48099586	     36.69385763	     -6.58825964	     -0.06458028	   -106.00281401	      2.99292905	      0.00000000	      0.00000000	      8.10824619	      7.69961397	      7.13705734	    -32.74700784	     20.23959838	      0.00000000	      0.00000000	    -16.17531008	     -7.42244000	    -13.59462195	      0.00000000	      0.00000000	      0.00000000	     90.00000000	     90.00000000	      0.00000000	      0.00000000	      0.00000000	      0.00000000	      0.00000000	     90.00000000	     90.00000000	      0.00000000	      0.00000000
      0.00500000	     -3.96201270	     -7.02829612	     90.72897189	     -0.20004095	      1.06335645	     -0.48204566	     38.35170029	     -6.66013577	      0.86213780	   -104.58551700	      3.62390781	      0.00000000	      0.00000000	      6.88322317	      8.24186774	      6.70402730	    -31.09530175	     19.41255303	      0.00000000	      0.00000000	    -15.22674172	     -8.15048116	    -13.38745544	      0.00000000	      0.00000000	      0.00000000	     90.00000000	     90.00000000	      0.00000000	      0.00000000	      0.00000000	      0.00000000	      0.00000000	     90.00000000	     90.00000000	      0.00000000	      0.00000000
      0.01000000	     -4.31248622	     -7.46038655	     89.98874859	     -0.19981508	      1.06579523	     -0.48302723	     39.77018120	     -6.60024909	      1.43575156	   -102.95058489	      4.09810346	      0.00000000	      0.00000000	      5.66988528	      8.51680426	      6.40702892	    -29.59077516	     18.41153264	      0.00000000	      0.00000000	    -14.40055165	     -8.52324215	    -13.27218394	      0.00000000	      0.00000000	      0.00000000	     90.00000000	     90.00000000	      0.00000000	      0.00000000	      0.00000000	      0.00000000	      0.00000000	     90.00000000	     90.00000000	      0.00000000	      0.00000000
      0.01500000	     -4.41825497	     -7.84505603	     89.43275607	     -0.19966941	      1.06863879	     -0.48396708	     40.96295129	     -6.42120993	      1.69316632	   -101.10652763	      4.43329850	      0.00000000	      0.00000000	      4.46774623	      8.55237805	      6.22306314	    -28.21469316	     17.24022413	      0.00000000	      0.00000000	    -13.68535929	     -8.57893751	    -13.23689915	      0.00000000	      0.00000000	      0.00000000	     90.00000000	     90.00000000	      0.00000000	      0.00000000	      0.00000000	      0.00000000	      0.00000000	     90.00000000	     90.00000000	      0.00000000	      0.00000000
      0.02000000	     -4.31908867	     -8.18424147	     89.02912805	     -0.19957822	      1.07182594	     -0.48489961	     41.94770527	     -6.14001055	      1.68243816	    -99.06444581	      4.65218877	      0.00000000	      0.00000000	      3.27707977	      8.38502727	      6.12249607	    -26.94343512	     15.90269510	      0.00000000	      0.00000000	    -13.06668549	     -8.36767450	    -13.26627232	      0.00000000	      0.00000000	      0.00000000	     90.00000000	     90.00000000	      0.00000000	      0.00000000	      0.00000000	      0.00000000	      0.00000000	     90.00000000	     90.00000000	      0.00000000	      0.00000000
      0.02500000	     -4.06025207	     -8.47932908	     88.74278537	     -0.19951788	      1.07528334	     -0.48586053	     42.74409807	     -5.77655288	      1.45734397	    -96.83690768	      4.77945874	      0.00000000	      0.00000000	      2.09930000	      8.05582614	      6.07262966	    -25.75194300	     14.40246983	      0.00000000	      0.00000000	    -12.52888207	     -7.94614915	    -13.34336141	      0.00000000	      0.00000000	      0.00000000	     90.00000000	     90.00000000	      0.00000000	      0.00000000	      0.00000000	      0.00000000	      0.00000000	     90.00000000	     90.00000000	      0.00000000	      0.00000000
